# xmcd
#
# Track frame offsets:
#	150
#	15889
#	31949
#	48990
#	66894
#	90119
#	113319
#	121611
#	147844
#
# Disc length: 2325 seconds
#
# Revision: 1
# Processed by: cddbd v1.5.2PL0 Copyright (c) Steve Scherf et al.
# Submitted via: audiograbber 1.83.01
#
DISCID=58091309
DTITLE=Bulut - Bulut
DYEAR=2011
DGENRE=World Music
TTITLE0=Kara
TTITLE1=Sorma Nereye
TTITLE2=Elimi Sallasam
TTITLE3=Lawuka
TTITLE4=Kimsin Sen
TTITLE5=Kehoa
TTITLE6=Istanbul
TTITLE7=Denizi Kizi
TTITLE8=Göcmen
EXTD=
EXTT0=
EXTT1=
EXTT2=
EXTT3=
EXTT4=
EXTT5=
EXTT6=
EXTT7=
EXTT8=
PLAYORDER=
